<svg width="49" height="49" viewBox="0 0 49 49" fill="none" xmlns="http://www.w3.org/2000/svg">
<path d="M12.8262 14.9844H34.8262C35.887 14.9844 36.9045 15.4058 37.6546 16.1559C38.4047 16.9061 38.8262 17.9235 38.8262 18.9844V19.9844C38.8262 20.2496 38.9315 20.5039 39.1191 20.6915C39.3066 20.879 39.561 20.9844 39.8262 20.9844C40.0914 20.9844 40.3457 21.0897 40.5333 21.2773C40.7208 21.4648 40.8262 21.7192 40.8262 21.9844V27.9844C40.8262 28.2496 40.7208 28.5039 40.5333 28.6915C40.3457 28.879 40.0914 28.9844 39.8262 28.9844C39.561 28.9844 39.3066 29.0897 39.1191 29.2773C38.9315 29.4648 38.8262 29.7192 38.8262 29.9844V30.9844C38.8262 32.0452 38.4047 33.0627 37.6546 33.8128C36.9045 34.5629 35.887 34.9844 34.8262 34.9844H12.8262C11.7653 34.9844 10.7479 34.5629 9.99774 33.8128C9.2476 33.0627 8.82617 32.0452 8.82617 30.9844V18.9844C8.82617 17.9235 9.2476 16.9061 9.99774 16.1559C10.7479 15.4058 11.7653 14.9844 12.8262 14.9844" stroke="black" stroke-width="2" stroke-linecap="round" stroke-linejoin="round"/>
<path d="M14.8262 20.9844V28.9844" stroke="black" stroke-width="2" stroke-linecap="round" stroke-linejoin="round"/>
<path d="M20.8262 20.9844V28.9844" stroke="black" stroke-width="2" stroke-linecap="round" stroke-linejoin="round"/>
<path d="M26.8262 20.9844V28.9844" stroke="black" stroke-width="2" stroke-linecap="round" stroke-linejoin="round"/>
</svg>
