<svg width="49" height="49" viewBox="0 0 49 49" fill="none" xmlns="http://www.w3.org/2000/svg">
<path opacity="0.3" d="M14.4229 34.2734H34.4229V14.2734H14.4229V34.2734ZM18.4229 18.2734H30.4229V30.2734H18.4229V18.2734Z" fill="black"/>
<path d="M42.4229 22.2734V18.2734H38.4229V14.2734C38.4229 12.0734 36.6229 10.2734 34.4229 10.2734H30.4229V6.27344H26.4229V10.2734H22.4229V6.27344H18.4229V10.2734H14.4229C12.2229 10.2734 10.4229 12.0734 10.4229 14.2734V18.2734H6.42293V22.2734H10.4229V26.2734H6.42293V30.2734H10.4229V34.2734C10.4229 36.4734 12.2229 38.2734 14.4229 38.2734H18.4229V42.2734H22.4229V38.2734H26.4229V42.2734H30.4229V38.2734H34.4229C36.6229 38.2734 38.4229 36.4734 38.4229 34.2734V30.2734H42.4229V26.2734H38.4229V22.2734H42.4229ZM34.4229 34.2734H14.4229V14.2734H34.4229V34.2734ZM30.4229 18.2734H18.4229V30.2734H30.4229V18.2734ZM26.4229 26.2734H22.4229V22.2734H26.4229V26.2734Z" fill="black"/>
</svg>
