<svg width="49" height="49" viewBox="0 0 49 49" fill="none" xmlns="http://www.w3.org/2000/svg">
<path fill-rule="evenodd" clip-rule="evenodd" d="M43.3522 20.5558C33.0423 10.246 16.3268 10.246 6.01698 20.5558C5.0797 21.4931 3.56012 21.4931 2.62285 20.5558C1.68559 19.6186 1.68559 18.099 2.62285 17.1617C14.8072 4.97735 34.562 4.97735 46.7463 17.1617C47.6835 18.099 47.6835 19.6186 46.7463 20.5558C45.8091 21.4931 44.2894 21.4931 43.3522 20.5558ZM36.564 27.3442C30.0032 20.7832 19.366 20.7832 12.8052 27.3442C11.8679 28.2814 10.3483 28.2814 9.41108 27.3442C8.47381 26.4067 8.47381 24.8873 9.41108 23.95C17.8464 15.5146 31.5228 15.5146 39.9581 23.95C40.8953 24.8873 40.8953 26.4067 39.9581 27.3442C39.0209 28.2814 37.5012 28.2814 36.564 27.3442ZM29.7759 34.1323C26.964 31.3205 22.4052 31.3205 19.5934 34.1323C18.6562 35.0695 17.1366 35.0695 16.1993 34.1323C15.262 33.1951 15.262 31.6754 16.1993 30.7382C20.8856 26.052 28.4835 26.052 33.17 30.7382C34.1072 31.6754 34.1072 33.1951 33.17 34.1323C32.2325 35.0695 30.7131 35.0695 29.7759 34.1323ZM22.2846 39.2234C22.2846 37.8979 23.3591 36.8234 24.6846 36.8234H24.7085C26.034 36.8234 27.1085 37.8979 27.1085 39.2234C27.1085 40.549 26.034 41.6234 24.7085 41.6234H24.6846C23.3591 41.6234 22.2846 40.549 22.2846 39.2234Z" fill="#374151"/>
</svg>
